<svg width="80" height="80" viewBox="0 0 80 80" fill="none" xmlns="http://www.w3.org/2000/svg">
<g filter="url(#filter0_d_27_151)">
<circle cx="40" cy="36" r="35" fill="#455763" fill-opacity="0.85" shape-rendering="crispEdges"/>
<circle cx="40" cy="36" r="35.25" stroke="#D3DADC" stroke-width="0.5" shape-rendering="crispEdges"/>
</g>
<path d="M70.5986 30.3901C69.1914 29.4629 67.5178 29.0254 65.8369 29.1455C65.0117 29.1504 64.1883 29.2228 63.375 29.362C63.1547 28.0873 62.6702 26.8728 61.9526 25.7965C61.2351 24.7203 60.3004 23.8059 59.2085 23.1123L58.3698 22.6252L57.8287 23.4098C57.1468 24.4751 56.6441 25.6449 56.3407 26.8728C56.0521 27.9599 55.9897 29.0947 56.1572 30.2069C56.3247 31.3191 56.7187 32.3851 57.3147 33.3389C55.9778 33.9504 54.5358 34.2994 53.0671 34.367H14.6495C14.1688 34.367 13.7078 34.558 13.3678 34.8979C13.0279 35.2378 12.8369 35.6989 12.8369 36.1796C12.784 39.5464 13.3526 42.8941 14.5143 46.0546C15.5652 49.1667 17.6209 51.8411 20.3581 53.657C24.3246 55.6635 28.7412 56.614 33.182 56.4166C35.5686 56.4165 37.9502 56.1992 40.2974 55.7673C43.5687 55.175 46.7157 54.0314 49.6041 52.3855C51.9807 51.0067 54.1186 49.2525 55.9349 47.1909C58.6272 44.0311 60.7261 40.4107 62.1304 36.5042H62.6715C63.8681 36.5535 65.0623 36.3609 66.1826 35.9379C67.3029 35.5148 68.3264 34.8701 69.1917 34.0422C69.9452 33.3291 70.5359 32.4616 70.9232 31.4991L71.1667 30.7959L70.5986 30.3901Z" fill="#565449"/>
<path d="M18.2207 33.258H23.3611C23.4216 33.2585 23.4816 33.247 23.5377 33.2241C23.5937 33.2011 23.6446 33.1673 23.6874 33.1244C23.7303 33.0816 23.7641 33.0307 23.787 32.9747C23.81 32.9186 23.8215 32.8586 23.821 32.798V28.1988C23.8215 28.1382 23.81 28.0782 23.787 28.0222C23.7641 27.9661 23.7303 27.9152 23.6874 27.8724C23.6446 27.8296 23.5937 27.7957 23.5377 27.7728C23.4816 27.7498 23.4216 27.7383 23.3611 27.7388H18.2207C18.1601 27.7383 18.1001 27.7498 18.0441 27.7728C17.988 27.7957 17.9371 27.8296 17.8943 27.8724C17.8515 27.9152 17.8176 27.9661 17.7947 28.0222C17.7718 28.0782 17.7602 28.1382 17.7608 28.1988V32.798C17.7642 32.919 17.8137 33.034 17.8993 33.1195C17.9848 33.205 18.0998 33.2546 18.2207 33.258ZM25.309 33.258H30.4494C30.5099 33.2585 30.57 33.247 30.626 33.2241C30.682 33.2011 30.7329 33.1673 30.7758 33.1244C30.8186 33.0816 30.8524 33.0307 30.8754 32.9747C30.8983 32.9186 30.9098 32.8586 30.9093 32.798V28.1988C30.9098 28.1382 30.8983 28.0782 30.8754 28.0222C30.8524 27.9661 30.8186 27.9152 30.7758 27.8724C30.7329 27.8296 30.682 27.7957 30.626 27.7728C30.57 27.7498 30.5099 27.7383 30.4494 27.7388H25.309C25.2485 27.7383 25.1884 27.7498 25.1324 27.7728C25.0763 27.7957 25.0254 27.8296 24.9826 27.8724C24.9398 27.9152 24.9059 27.9661 24.883 28.0222C24.8601 28.0782 24.8486 28.1382 24.8491 28.1988V32.798C24.8525 32.919 24.902 33.034 24.9876 33.1195C25.0731 33.205 25.1881 33.2546 25.309 33.258ZM32.5326 33.258H37.673C37.7335 33.2585 37.7935 33.247 37.8496 33.2241C37.9056 33.2011 37.9565 33.1673 37.9993 33.1244C38.0422 33.0816 38.076 33.0307 38.0989 32.9747C38.1219 32.9186 38.1334 32.8586 38.1329 32.798V28.1988C38.1334 28.1382 38.1219 28.0782 38.0989 28.0222C38.076 27.9661 38.0422 27.9152 37.9993 27.8724C37.9565 27.8296 37.9056 27.7957 37.8496 27.7728C37.7935 27.7498 37.7335 27.7383 37.673 27.7388H32.5324C32.4719 27.7383 32.4119 27.7498 32.3558 27.7728C32.2998 27.7957 32.2489 27.8296 32.2061 27.8724C32.1632 27.9152 32.1294 27.9661 32.1065 28.0222C32.0835 28.0782 32.072 28.1382 32.0725 28.1988V32.798C32.0697 32.8592 32.0797 32.9202 32.1019 32.9773C32.124 33.0344 32.1578 33.0862 32.2011 33.1295C32.2443 33.1727 32.2961 33.2065 32.3532 33.2286C32.4103 33.2508 32.4714 33.2608 32.5326 33.258ZM39.6479 33.258H44.7883C44.8488 33.2585 44.9089 33.247 44.9649 33.2241C45.021 33.2011 45.0719 33.1673 45.1147 33.1244C45.1575 33.0816 45.1913 33.0307 45.2143 32.9747C45.2372 32.9186 45.2487 32.8586 45.2482 32.798V28.1988C45.2487 28.1382 45.2372 28.0782 45.2143 28.0222C45.1913 27.9661 45.1575 27.9152 45.1147 27.8724C45.0719 27.8296 45.021 27.7957 44.9649 27.7728C44.9089 27.7498 44.8488 27.7383 44.7883 27.7388H39.6479C39.5874 27.7383 39.5274 27.7498 39.4713 27.7728C39.4153 27.7957 39.3644 27.8296 39.3216 27.8724C39.2787 27.9152 39.2449 27.9661 39.222 28.0222C39.199 28.0782 39.1875 28.1382 39.188 28.1988V32.798C39.1875 32.8586 39.199 32.9186 39.222 32.9747C39.2449 33.0307 39.2787 33.0816 39.3216 33.1244C39.3644 33.1673 39.4153 33.2011 39.4713 33.2241C39.5274 33.247 39.5874 33.2585 39.6479 33.258ZM25.309 26.6838H30.4494C30.5702 26.6803 30.6851 26.6307 30.7706 26.5452C30.8561 26.4597 30.9057 26.3448 30.9093 26.2239V21.6245C30.9098 21.564 30.8983 21.5039 30.8754 21.4479C30.8524 21.3918 30.8186 21.3409 30.7758 21.2981C30.7329 21.2553 30.682 21.2214 30.626 21.1985C30.57 21.1756 30.5099 21.164 30.4494 21.1646H25.309C25.2485 21.164 25.1884 21.1756 25.1324 21.1985C25.0763 21.2214 25.0254 21.2553 24.9826 21.2981C24.9398 21.3409 24.9059 21.3918 24.883 21.4479C24.8601 21.5039 24.8486 21.564 24.8491 21.6245V26.2238C24.8571 26.3431 24.9082 26.4555 24.9928 26.54C25.0773 26.6246 25.1897 26.6758 25.309 26.6838ZM32.5326 26.6837H37.673C37.7938 26.6802 37.9087 26.6306 37.9942 26.5451C38.0797 26.4596 38.1293 26.3446 38.1329 26.2238V21.6245C38.1334 21.564 38.1219 21.5039 38.0989 21.4479C38.076 21.3918 38.0422 21.3409 37.9993 21.2981C37.9565 21.2553 37.9056 21.2214 37.8496 21.1985C37.7935 21.1756 37.7335 21.164 37.673 21.1646H32.5324C32.4719 21.164 32.4119 21.1756 32.3558 21.1985C32.2998 21.2214 32.2489 21.2553 32.2061 21.2981C32.1632 21.3409 32.1294 21.3918 32.1065 21.4479C32.0835 21.5039 32.072 21.564 32.0725 21.6245V26.2238C32.072 26.2843 32.0835 26.3444 32.1065 26.4004C32.1294 26.4565 32.1633 26.5074 32.2061 26.5502C32.2489 26.593 32.2998 26.6268 32.3558 26.6498C32.4119 26.6727 32.472 26.6842 32.5326 26.6837ZM39.6478 26.6837H44.7883C44.9091 26.6802 45.0241 26.6306 45.1096 26.5451C45.195 26.4596 45.2447 26.3446 45.2482 26.2238V21.6245C45.2447 21.5036 45.195 21.3887 45.1096 21.3032C45.0241 21.2177 44.9091 21.1681 44.7883 21.1646H39.6479C39.5874 21.164 39.5274 21.1756 39.4713 21.1985C39.4153 21.2214 39.3644 21.2553 39.3216 21.2981C39.2787 21.3409 39.2449 21.3918 39.222 21.4479C39.199 21.5039 39.1875 21.564 39.188 21.6245V26.2238C39.1916 26.3446 39.2412 26.4596 39.3267 26.5451C39.4122 26.6306 39.527 26.6802 39.6478 26.6837ZM39.6479 20.0824H44.7883C44.8488 20.0829 44.9089 20.0714 44.9649 20.0484C45.021 20.0255 45.0719 19.9917 45.1147 19.9488C45.1575 19.906 45.1913 19.8551 45.2143 19.7991C45.2372 19.743 45.2487 19.683 45.2482 19.6224V15.0232C45.2447 14.9023 45.195 14.7874 45.1096 14.7019C45.0241 14.6164 44.9091 14.5668 44.7883 14.5632H39.6479C39.5874 14.5627 39.5274 14.5743 39.4713 14.5972C39.4153 14.6201 39.3644 14.654 39.3216 14.6968C39.2787 14.7396 39.2449 14.7905 39.222 14.8466C39.199 14.9026 39.1875 14.9626 39.188 15.0232V19.6224C39.1916 19.7433 39.2412 19.8582 39.3267 19.9437C39.4122 20.0292 39.5271 20.0788 39.6479 20.0824ZM46.8174 33.258H51.9578C52.0183 33.2585 52.0784 33.247 52.1344 33.2241C52.1905 33.2011 52.2414 33.1673 52.2842 33.1245C52.327 33.0817 52.3609 33.0307 52.3838 32.9747C52.4067 32.9187 52.4183 32.8586 52.4177 32.7981V28.1988C52.4183 28.1382 52.4067 28.0782 52.3838 28.0222C52.3609 27.9661 52.327 27.9152 52.2842 27.8724C52.2414 27.8296 52.1905 27.7957 52.1344 27.7728C52.0784 27.7499 52.0183 27.7383 51.9578 27.7389H46.8174C46.7569 27.7383 46.6968 27.7499 46.6408 27.7728C46.5848 27.7957 46.5339 27.8296 46.491 27.8724C46.4482 27.9152 46.4144 27.9661 46.3914 28.0222C46.3685 28.0782 46.357 28.1382 46.3575 28.1988V32.7981C46.3609 32.919 46.4105 33.034 46.496 33.1195C46.5815 33.205 46.6965 33.2546 46.8174 33.258Z" fill="#E8E2DA"/>
<defs>
<filter id="filter0_d_27_151" x="0.5" y="0.5" width="79" height="79" filterUnits="userSpaceOnUse" color-interpolation-filters="sRGB">
<feFlood flood-opacity="0" result="BackgroundImageFix"/>
<feColorMatrix in="SourceAlpha" type="matrix" values="0 0 0 0 0 0 0 0 0 0 0 0 0 0 0 0 0 0 127 0" result="hardAlpha"/>
<feOffset dy="4"/>
<feGaussianBlur stdDeviation="2"/>
<feComposite in2="hardAlpha" operator="out"/>
<feColorMatrix type="matrix" values="0 0 0 0 0 0 0 0 0 0 0 0 0 0 0 0 0 0 0.25 0"/>
<feBlend mode="normal" in2="BackgroundImageFix" result="effect1_dropShadow_27_151"/>
<feBlend mode="normal" in="SourceGraphic" in2="effect1_dropShadow_27_151" result="shape"/>
</filter>
</defs>
</svg>
