<svg width="80" height="80" viewBox="0 0 80 80" fill="none" xmlns="http://www.w3.org/2000/svg">
<g filter="url(#filter0_d_27_156)">
<circle cx="40" cy="36" r="35.25" stroke="#D3DADC" stroke-width="0.5" shape-rendering="crispEdges"/>
</g>
<g clip-path="url(#clip0_27_156)">
<path d="M26.2937 29H16.2587C15.5594 29 15 29.5594 15 30.2587V41.7273C15 42.4266 15.5594 42.986 16.2587 42.986H26.2937C26.993 42.986 27.5524 42.4266 27.5524 41.7273V30.2587C27.5524 29.5594 26.993 29 26.2937 29ZM26.8531 41.7273C26.8531 42.042 26.6084 42.2867 26.2937 42.2867H16.2587C15.9441 42.2867 15.6993 42.042 15.6993 41.7273V30.2587C15.6993 29.9441 15.9441 29.6993 16.2587 29.6993H26.2937C26.6084 29.6993 26.8531 29.9441 26.8531 30.2587V41.7273ZM18.1469 40.8881L19.7203 39.4895L18.1469 38.0909V40.8881ZM23.8112 35.2238C23.5315 34.9441 23.007 34.5944 22.1329 34.5944C21.1888 34.5944 20.2098 34.8392 19.5105 35.0839V31.0979H18.1469V37.1469L19.1259 36.6923C19.1259 36.6923 20.7343 35.958 22.1329 35.958C22.8322 35.958 23.007 36.3427 23.007 36.6923V40.8881H24.4056V36.6923C24.4056 36.5874 24.4056 35.8182 23.8112 35.2238ZM21.958 33.3706H23.3566C23.986 32.6364 24.3007 31.9021 24.4056 31.0979H23.007C22.8671 31.9021 22.5175 32.6364 21.958 33.3706ZM60.5944 36.6573V33.5455H61.993V36.6224C61.993 37.3217 62.2378 37.6713 62.7972 37.6713C63.3566 37.6713 63.5664 37.3566 63.5664 36.6224V33.5455H64.9301V36.6573C64.9301 38.021 64.2657 38.8252 62.7622 38.8252C61.2587 38.8252 60.5944 38.021 60.5944 36.6573ZM54.7203 33.5804H56.1189V35.4685L57.5524 33.5804H59.1608L57.4126 35.6084L59.3007 38.7552H57.7273L56.5035 36.6923L56.1189 37.1469V38.7552H54.7203V33.5804ZM48.0769 36.1329C48.0769 34.2448 49.3706 33.4406 50.6294 33.4406C51.8881 33.4406 53.1818 34.2448 53.1818 36.1329C53.1818 38.021 51.8881 38.8252 50.6294 38.8252C49.3706 38.8252 48.0769 38.0559 48.0769 36.1329ZM51.7483 36.1329C51.7483 35.1888 51.3287 34.5944 50.5944 34.5944C49.8601 34.5944 49.4406 35.1888 49.4406 36.1329C49.4406 37.0769 49.8601 37.7063 50.5944 37.7063C51.3287 37.7063 51.7483 37.1119 51.7483 36.1329ZM42.4476 33.5804H44.4755C45.8042 33.5804 46.6084 34.035 46.6084 35.2587C46.6084 36.0629 46.2587 36.5524 45.5944 36.7622L46.6783 38.7552H45.2098L44.1958 36.972H43.8112V38.7552H42.4476V33.5804ZM44.4406 35.8881C45 35.8881 45.2797 35.7133 45.2797 35.2937C45.2797 34.8741 45.035 34.6993 44.4406 34.6993H43.8462V35.8881H44.4406ZM37.0979 33.5804H40.8042V34.7343H38.4965V35.5734H40.1399V36.6573H38.4965V37.6014H40.9091V38.7203H37.0979V33.5804ZM30.7692 33.5804H32.1678V35.5035H33.8811V33.5804H35.2797V38.7552H33.8811V36.6573H32.1678V38.7552H30.7692V33.5804Z" fill="#455763"/>
</g>
<defs>
<filter id="filter0_d_27_156" x="0.5" y="0.5" width="79" height="79" filterUnits="userSpaceOnUse" color-interpolation-filters="sRGB">
<feFlood flood-opacity="0" result="BackgroundImageFix"/>
<feColorMatrix in="SourceAlpha" type="matrix" values="0 0 0 0 0 0 0 0 0 0 0 0 0 0 0 0 0 0 127 0" result="hardAlpha"/>
<feOffset dy="4"/>
<feGaussianBlur stdDeviation="2"/>
<feComposite in2="hardAlpha" operator="out"/>
<feColorMatrix type="matrix" values="0 0 0 0 0 0 0 0 0 0 0 0 0 0 0 0 0 0 0.25 0"/>
<feBlend mode="normal" in2="BackgroundImageFix" result="effect1_dropShadow_27_156"/>
<feBlend mode="normal" in="SourceGraphic" in2="effect1_dropShadow_27_156" result="shape"/>
</filter>
<clipPath id="clip0_27_156">
<rect width="50" height="13.986" fill="white" transform="translate(15 29)"/>
</clipPath>
</defs>
</svg>
